<svg width="23" height="23" viewBox="0 0 23 23" fill="none" xmlns="http://www.w3.org/2000/svg">
<g clip-path="url(#clip0)">
<path d="M19.6941 0.378906H3.85865C2.24537 0.378906 0.9375 1.68672 0.9375 3.30003V19.1355C0.9375 20.7488 2.24532 22.0566 3.85865 22.0566H11.6686L11.6819 14.3102H9.66939C9.40785 14.3102 9.19557 14.0987 9.19456 13.8371L9.18491 11.3401C9.1839 11.0772 9.39682 10.8635 9.65979 10.8635H11.6687V8.45073C11.6687 5.65078 13.3787 4.12618 15.8765 4.12618H17.9261C18.1883 4.12618 18.401 4.33877 18.401 4.60106V6.70654C18.401 6.96872 18.1885 7.18126 17.9263 7.18142L16.6685 7.182C15.3102 7.182 15.0471 7.82748 15.0471 8.77474V10.8635H18.0319C18.3163 10.8635 18.537 11.1119 18.5035 11.3943L18.2075 13.8913C18.1792 14.1302 17.9766 14.3103 17.736 14.3103H15.0605L15.0471 22.0567H19.6942C21.3075 22.0567 22.6153 20.7489 22.6153 19.1356V3.30003C22.6152 1.68672 21.3074 0.378906 19.6941 0.378906Z" fill="#3B3E59"/>
</g>
<defs>
<clipPath id="clip0">
<path d="M0.9375 0.378906H22.6153V22.0567H0.9375V0.378906Z" fill="white"/>
</clipPath>
</defs>
</svg>
