<svg width="26" height="25" viewBox="0 0 26 25" fill="none" xmlns="http://www.w3.org/2000/svg">
<g clip-path="url(#clip0)">
<path d="M25.3563 12.2182C25.3563 5.48375 19.8969 0.0244141 13.1625 0.0244141C6.42808 0.0244141 0.96875 5.48375 0.96875 12.2182C0.96875 18.9526 6.42808 24.4119 13.1625 24.4119C19.8969 24.4119 25.3563 18.9526 25.3563 12.2182Z" fill="#3B3E59"/>
<path d="M16.2765 5.44336H10.0495C8.03091 5.44336 6.38867 7.0856 6.38867 9.10416V15.3312C6.38867 17.3497 8.03091 18.992 10.0495 18.992H16.2765C18.2951 18.992 19.9373 17.3497 19.9373 15.3312V9.10416C19.9373 7.0856 18.2951 5.44336 16.2765 5.44336ZM18.8427 15.3312C18.8427 16.7462 17.6915 17.8974 16.2765 17.8974H10.0495C8.63446 17.8974 7.48325 16.7462 7.48325 15.3312V9.10416C7.48325 7.68915 8.63444 6.53794 10.0495 6.53794H16.2765C17.6915 6.53794 18.8427 7.68912 18.8427 9.10416V15.3312Z" fill="#F7F7F9"/>
<path d="M15.8427 11.8201C15.7568 11.2408 15.4926 10.7158 15.0785 10.3017C14.6644 9.88758 14.1395 9.62326 13.5602 9.53738C13.2965 9.49828 13.0292 9.49828 12.7655 9.53738C12.0496 9.64356 11.418 10.0221 10.9869 10.6034C10.5558 11.1847 10.3768 11.8991 10.483 12.615C10.5891 13.3309 10.9677 13.9625 11.5489 14.3937C12.0208 14.7437 12.5802 14.9275 13.1571 14.9275C13.2908 14.9275 13.4255 14.9176 13.5602 14.8977C14.2761 14.7915 14.9077 14.4129 15.3388 13.8316C15.7699 13.2504 15.9489 12.536 15.8427 11.8201ZM13.4171 13.932C12.9592 14 12.5022 13.8855 12.1304 13.6097C11.7586 13.3339 11.5164 12.9297 11.4485 12.4718C11.3806 12.0138 11.4951 11.5568 11.7709 11.185C12.0467 10.8131 12.4507 10.5709 12.9086 10.503C12.993 10.4905 13.0779 10.4843 13.1628 10.4843C13.2478 10.4843 13.3327 10.4905 13.417 10.5031C14.1776 10.6158 14.7644 11.2027 14.8772 11.9633C15.0173 12.9087 14.3624 13.7919 13.4171 13.932Z" fill="#F7F7F9"/>
<path d="M17.0295 8.35174C16.9033 8.22561 16.7287 8.15332 16.5505 8.15332C16.3722 8.15332 16.1976 8.22557 16.0715 8.35174C15.9453 8.4779 15.873 8.65221 15.873 8.83075C15.873 9.00929 15.9453 9.1836 16.0715 9.30976C16.1976 9.4359 16.3722 9.50818 16.5505 9.50818C16.7287 9.50818 16.9033 9.43593 17.0295 9.30976C17.1556 9.1836 17.2279 9.00899 17.2279 8.83075C17.2279 8.65248 17.1556 8.47787 17.0295 8.35174Z" fill="#F7F7F9"/>
</g>
<defs>
<clipPath id="clip0">
<path d="M0.96875 0.0244141H25.3563V24.4119H0.96875V0.0244141Z" fill="white"/>
</clipPath>
</defs>
</svg>
