<svg width="25" height="20" viewBox="0 0 25 20" fill="none" xmlns="http://www.w3.org/2000/svg">
<g clip-path="url(#clip0)">
<path d="M24.3875 2.97811C23.4899 3.35894 22.5268 3.61722 21.5149 3.73253C22.5481 3.14008 23.3391 2.20037 23.7139 1.08408C22.7447 1.63273 21.6749 2.03111 20.535 2.24708C19.6221 1.31466 18.3237 0.733887 16.8836 0.733887C14.1207 0.733887 11.8805 2.8789 11.8805 5.52296C11.8805 5.89796 11.9247 6.26422 12.0101 6.61445C7.8528 6.41452 4.16641 4.50736 1.69916 1.60938C1.26787 2.31564 1.02252 3.13859 1.02252 4.01706C1.02252 5.6791 1.90641 7.14558 3.24749 8.00356C2.4276 7.97731 1.65648 7.76135 0.9814 7.40237V7.4622C0.9814 9.78232 2.7065 11.7187 4.99391 12.1594C4.57482 12.2673 4.1329 12.3272 3.67571 12.3272C3.35265 12.3272 3.04024 12.2965 2.73392 12.2382C3.3709 14.1424 5.21794 15.5272 7.40633 15.5651C5.69493 16.8492 3.53703 17.6124 1.19324 17.6124C0.789408 17.6124 0.391636 17.589 0 17.5467C2.21429 18.9082 4.84308 19.702 7.66845 19.702C16.8715 19.702 21.902 12.4031 21.902 6.07309L21.8853 5.45295C22.8682 4.78167 23.7185 3.93827 24.3875 2.97811Z" fill="#3B3E59"/>
</g>
<defs>
<clipPath id="clip0">
<path d="M0 0.733887H24.3875V19.702H0V0.733887Z" fill="white"/>
</clipPath>
</defs>
</svg>
